PathFileType	4	(X/Y/Z)	Patient4_TMGait_0pt5_02_right_15.trc.trc
DataRate	CameraRate	NumFrames	NumMarkers	Units	OrigDataRate	OrigDataStartFrame	OrigNumFrames
77.348066298343	77.348066298343	4	33	mm	77.348066298343	1	       141
Frame#	Time	Sacral			L.Shoulder			Chest			R.Shoulder			Neck			R.ASIS			L.ASIS			R.Thigh.Superior			R.Thigh.Lateral			R.Thigh.Inferior			R.Patella			L.Thigh.Superior			L.Thigh.Lateral			L.Thigh.Inferior			L.Patella			L.Shank.Superior			L.Shank.Lateral			L.Shank.Inferior			R.Shank.Superior			R.Shank.Lateral			R.Shank.Inferior			R.Heel			R.Midfoot.Superior			R.Midfoot.Lateral			R.Toe			L.Heel			L.Midfoot.Lateral			L.Midfoot.Superior			L.Toe			L.Elbow			L.Wrist			R.Elbow			R.Wrist			
		X1	Y1	Z1	X2	Y2	Z2	X3	Y3	Z3	X4	Y4	Z4	X5	Y5	Z5	X6	Y6	Z6	X7	Y7	Z7	X8	Y8	Z8	X9	Y9	Z9	X10	Y10	Z10	X11	Y11	Z11	X12	Y12	Z12	X13	Y13	Z13	X14	Y14	Z14	X15	Y15	Z15	X16	Y16	Z16	X17	Y17	Z17	X18	Y18	Z18	X19	Y19	Z19	X20	Y20	Z20	X21	Y21	Z21	X22	Y22	Z22	X23	Y23	Z23	X24	Y24	Z24	X25	Y25	Z25	X26	Y26	Z26	X27	Y27	Z27	X28	Y28	Z28	X29	Y29	Z29	X30	Y30	Z30	X31	Y31	Z31	X32	Y32	Z32	X33	Y33	Z33	

1	19.620000000000	585.740368439103	1010.493065613732	471.600795232533	780.731072597420	1436.152788756983	297.975556662398	875.108586827274	1361.834189121584	462.190180199792	786.838352324162	1435.697517414363	634.565941063117	776.038482570420	1495.986996092034	449.474259203884	806.679806599837	944.028924038458	596.287422669616	806.580718815825	961.368648938446	321.118089812555	882.819008373212	768.374577606190	568.608158183267	834.660451441522	648.242016826852	638.796277532797	925.129385484861	604.552981697927	562.546046591102	937.824426623662	489.765527008383	584.641595879868	852.753304716802	750.946865015593	352.607050635073	765.855403308803	635.211484600012	295.821260604771	848.865690750066	558.232742747486	362.270644136534	849.319902717828	487.129216385556	373.878003254388	820.282447992529	415.352452908353	366.350249748110	730.979047682465	302.528049606997	313.572838427770	774.458427644181	191.673337443448	388.535929524213	857.230715538678	419.281475071352	591.023343489803	732.960485051628	387.191372378552	650.572242739730	713.154457950985	278.448939672461	601.486929296396	510.750348357981	232.842276406721	568.998762992483	670.797503709646	157.470424178471	613.292307076329	561.223244590833	168.256490991294	644.587594714997	724.197488909923	40.804251284139	645.360540229287	640.588441598591	37.848394066488	428.676502426737	716.027806712762	35.210550019270	349.411693217717	799.223492653840	95.350791058565	377.840003369386	928.052911373771	41.663338005994	351.687162922726	797.519298249384	1090.192783150453	156.148927715099	967.961191285062	890.515262719704	151.283169092150	763.286312642330	1082.735906216883	741.022176937096	870.750607200335	843.801024660244	742.336016782275	
2	19.632928571429	584.819937280310	1011.330207258750	470.279188553341	782.547536965303	1436.856140255589	297.841401152017	875.209767559771	1362.188296939831	462.827097472292	785.596037314863	1436.098022667414	634.555869964040	776.326451128358	1496.503863420736	449.393280225434	805.508827540851	944.871552127658	595.928566408859	806.715948784642	961.666497411826	320.807666666043	883.715313696516	771.593504223736	567.715556568596	838.184097165186	651.069193024082	638.340250019507	928.689681415069	608.607716880830	561.545214146946	943.666886432001	494.505339317237	583.913232491588	850.315397981537	750.139909440728	352.313106723793	762.092516556517	635.370943992917	295.366274567184	843.932539496938	557.493090926877	361.894318416287	843.547842541758	486.657754404192	373.620085072175	814.476550527207	415.189804145154	365.986005820615	724.847381801637	302.560150982751	313.232923344412	767.931495609236	191.630078202316	388.323017939292	865.374321722437	422.114472263766	590.269506760465	742.460900828364	385.599435334624	649.396015220347	726.476455007025	276.489369780995	600.502969067063	526.047231823619	223.723531533216	568.029678978647	688.636477182951	154.225440296326	612.085351524541	578.864360661725	160.778702132735	643.392703376171	746.127562793369	39.380504718816	643.377289100865	633.625801453221	37.975959536647	428.570303940069	709.149879603394	35.218144297940	349.350209007459	792.393241817751	95.346099840064	377.714519404599	921.189048891087	41.533474020848	351.637881446709	804.819129397159	1092.545174011665	154.225932331318	982.974286713090	900.598467903146	149.485550216167	751.652477767149	1084.512382230707	740.505863689683	844.093215404631	840.969824826664	743.199011271557	
3	19.645857142857	583.915378334973	1012.158655012684	468.979320228586	784.344979090700	1437.534091142217	297.732792731302	875.317840903028	1362.529986652911	463.477520045307	784.364722373452	1436.492054835475	634.547056860663	776.612288996625	1497.004679107722	449.331342483044	804.351982825902	945.689981435713	595.595936151055	806.807709303455	961.942049224609	320.539346197457	884.535729231376	774.714222030005	566.878063584930	841.557020711234	653.808535161317	637.931245862364	932.074347397776	612.530821639204	560.596809574849	949.286196821445	499.165838646670	583.252023794252	847.894127765952	749.328503990956	352.063925230881	758.353755393884	635.529269685365	294.927310601934	839.009373610511	556.755986382604	361.539784424959	837.779878979703	486.184636585062	373.379756863837	808.687857134967	415.028805250585	365.633425745484	718.746848144704	302.590459661289	312.901283550472	761.444490827966	191.588502647627	388.117061346873	873.356512251078	424.852635228525	589.586526596403	751.871045416548	383.822708006983	648.320027103772	739.811552347370	274.352386509227	599.611586550473	541.452784984570	214.277553700264	567.173235504700	706.596160391315	150.801769869100	610.971673010195	596.662841696219	153.046612070210	642.315964286857	768.272987016773	37.874709546276	641.517561264181	626.719718940067	38.096918423312	428.467197277343	702.323716501794	35.223776421553	349.290534864342	785.612507417251	95.340591200601	377.594116030732	914.377058505785	41.409139086538	351.589943396664	811.978869393115	1094.864590436841	152.359426430197	997.727917115325	910.654636460268	147.772306868552	740.091880379250	1086.358149580242	740.022823934242	817.816871529235	838.444757936273	743.997906009925	
4	19.658785714286	583.046717309471	1012.964726909079	467.734977762708	786.113601381484	1438.155861154499	297.682520647945	875.446457512730	1362.838154935159	464.161517757969	783.166702870012	1436.867111135920	634.548514990048	776.907955009958	1497.466904386922	449.315147083657	803.223570175123	946.451581771506	595.326856594311	806.828079265947	962.172099026497	320.358227535903	885.183334133942	777.604215473897	566.161180422453	844.574896915738	656.345215869024	637.622203586842	935.059305276452	616.154698585977	559.764713629224	954.410022117852	503.639801930955	582.713354125657	845.501924423157	748.505377090068	351.903072010532	754.657017287886	635.683688969295	294.522578323741	834.102531817875	556.022376652724	361.230632080056	832.021348057123	485.708721162859	373.173562884943	802.928315117022	414.869648103744	365.307106939960	712.698907406488	302.618373307888	312.588946050568	755.025037454903	191.549137757729	387.926504396786	880.985122398086	427.405890171915	589.037881952391	761.128732121870	381.700080268999	647.451893000136	753.198684575062	271.924354530764	598.896982616859	557.186948996760	204.246574724740	566.544368086811	724.839661983177	147.133904569944	610.033939713609	614.872317438078	144.908199539397	641.470157182709	790.871990386818	36.372749239174	639.877641738752	619.911407118424	38.205274643886	428.371598731450	695.584480057485	35.225987013077	349.234803372149	778.914804646034	95.333511979368	377.483464191037	907.652283309780	41.294699348632	351.544595472123	818.861603310673	1097.109706405086	150.612779063862	1011.948503694803	920.640779559134	146.239969461678	728.689440281122	1088.347263530804	739.595614607789	792.308923210588	836.517390255818	744.678261341083	
